<svg width="20.000000" height="20.000000" viewBox="0 0 20 20" fill="none" xmlns="http://www.w3.org/2000/svg" xmlns:xlink="http://www.w3.org/1999/xlink">
  <desc>
    Created with Pixso.
  </desc>
  <defs>
    <linearGradient id="paint_linear_2_38_0" x1="1.999998" y1="1.500000" x2="18.499994" y2="20.000002" gradientUnits="userSpaceOnUse">
      <stop stop-color="#405DE6"/>
      <stop offset="0.200000" stop-color="#5851DB"/>
      <stop offset="0.395000" stop-color="#833AB4"/>
      <stop offset="0.600000" stop-color="#C13584"/>
      <stop offset="0.800000" stop-color="#E1306C"/>
      <stop offset="1.000000" stop-color="#FD1D1D"/>
    </linearGradient>
  </defs>
  <path id="Vector" d="M10 4.87C7.16 4.87 4.87 7.16 4.87 10C4.87 12.83 7.16 15.12 10 15.12C12.83 15.12 15.12 12.83 15.12 10C15.12 7.16 12.83 4.87 10 4.87ZM10 13.33C8.16 13.33 6.66 11.83 6.66 10C6.66 8.16 8.16 6.66 10 6.66C11.84 6.66 13.33 8.16 13.33 10C13.33 11.83 11.83 13.33 10 13.33ZM16.53 4.66C16.53 5.32 15.99 5.85 15.33 5.85C14.67 5.85 14.14 5.32 14.14 4.66C14.14 4 14.67 3.46 15.33 3.46C15.99 3.46 16.53 4 16.53 4.66ZM19.92 5.87C19.85 4.27 19.48 2.85 18.31 1.68C17.14 0.51 15.72 0.15 14.12 0.07C12.47 -0.03 7.52 -0.03 5.87 0.07C4.27 0.14 2.85 0.51 1.68 1.68C0.51 2.85 0.15 4.26 0.07 5.87C-0.03 7.52 -0.03 12.47 0.07 14.12C0.14 15.72 0.51 17.14 1.68 18.31C2.85 19.48 4.27 19.84 5.87 19.92C7.52 20.02 12.47 20.02 14.12 19.92C15.72 19.85 17.14 19.48 18.31 18.31C19.48 17.14 19.84 15.72 19.92 14.12C20.02 12.47 20.02 7.52 19.92 5.87ZM17.79 15.89C17.44 16.77 16.77 17.44 15.89 17.79C14.58 18.31 11.45 18.19 10 18.19C8.54 18.19 5.41 18.31 4.1 17.79C3.23 17.44 2.55 16.77 2.2 15.89C1.68 14.57 1.8 11.45 1.8 10C1.8 8.54 1.68 5.41 2.2 4.1C2.55 3.22 3.22 2.55 4.1 2.2C5.42 1.68 8.54 1.8 10 1.8C11.45 1.8 14.58 1.68 15.89 2.2C16.77 2.55 17.44 3.22 17.79 4.1C18.31 5.42 18.19 8.54 18.19 10C18.19 11.45 18.31 14.58 17.79 15.89Z" fill="url(#paint_linear_2_38_0)" fill-opacity="1.000000" fill-rule="nonzero"/>
</svg>
